<svg id="Layer_1" enable-background="new 0 0 513.103 513.103" height="512" viewBox="0 0 513.103 513.103" width="512" xmlns="http://www.w3.org/2000/svg"><g><path d="m130.552 307.138c0-91.957 67.096-168.23 155-182.566-9.766-1.593-19.784-2.434-30-2.434-102.173 0-185 82.827-185 185s82.827 185 185 185c10.216 0 20.234-.841 30-2.434-87.904-14.337-155-90.61-155-182.566z" fill="#c6e1f2"/><path d="m256.517 513.103c-113.038 0-205-91.962-205-205s91.962-205 205-205 205 91.962 205 205-91.962 205-205 205zm0-370c-90.981 0-165 74.019-165 165s74.019 165 165 165 165-74.019 165-165-74.018-165-165-165zm-21.632-83.103c0-11.028 8.972-20 20-20s20 8.917 20 19.878c0 11.046 8.954 20 20 20s20-8.954 20-20c0-33.017-26.916-59.878-60-59.878s-60 26.916-60 60c0 11.046 8.954 20 20 20s20-8.954 20-20z" fill="#0023c4"/><path d="m338.558 328.095c-.005 0-.009 0-.015 0l-60.769-.02c-22.749-.007-41.257-18.521-41.257-41.271v-60.744c0-12.867 5.833-24.777 16.002-32.675 10.083-7.832 22.938-10.516 35.261-7.369 44.619 11.397 79.419 46.195 90.82 90.813 3.15 12.328.463 25.183-7.371 35.267-7.898 10.169-19.806 15.999-32.671 15.999zm-60.912-103.358c-.15 0-.345.049-.591.24-.538.417-.538.919-.538 1.084v60.744c0 .7.57 1.271 1.27 1.271l60.77.02c.002.001.004 0 .006 0 .17 0 .666-.006 1.079-.538.312-.402.245-.666.204-.824-7.778-30.443-31.522-54.185-61.965-61.96-.061-.017-.14-.037-.235-.037zm201.048-64.457c7.811-7.811 7.811-20.474 0-28.284l-50-50c-7.811-7.811-20.474-7.811-28.284 0s-7.811 20.474 0 28.284l50 50c3.905 3.905 9.023 5.858 14.142 5.858s10.236-1.953 14.142-5.858zm-416 1 50-50c7.811-7.811 7.811-20.474 0-28.284s-20.474-7.811-28.284 0l-50 50c-7.811 7.811-7.811 20.474 0 28.284 3.905 3.905 9.023 5.858 14.142 5.858s10.236-1.953 14.142-5.858z" fill="#ff5cf4"/></g></svg>